<svg width="24" height="18" viewBox="0 0 24 18" fill="none" xmlns="http://www.w3.org/2000/svg">
<path d="M1.37491 8.49999L2.23808 7.6448L7.64788 2.28499C7.64791 2.28496 7.64794 2.28494 7.64797 2.28491C7.69479 2.23845 7.73196 2.18317 7.75733 2.12228C7.78271 2.06135 7.79578 1.996 7.79578 1.92999C7.79578 1.86399 7.78271 1.79863 7.75733 1.7377C7.73195 1.67677 7.69475 1.62147 7.64788 1.57499L7.64748 1.5746C7.5538 1.48147 7.42708 1.4292 7.29498 1.4292C7.16289 1.4292 7.03617 1.48147 6.94248 1.5746L6.94198 1.5751L1.23376 7.23333C1.23348 7.23361 1.23319 7.23389 1.23291 7.23418C0.765272 7.70284 0.502625 8.33789 0.502625 8.99999C0.502625 9.66239 0.765508 10.2977 1.23354 10.7664L1.37491 8.49999ZM1.37491 8.49999H2.58998H23C23.1326 8.49999 23.2598 8.55267 23.3535 8.64644C23.4473 8.74021 23.5 8.86738 23.5 8.99999C23.5 9.1326 23.4473 9.25978 23.3535 9.35355C23.2598 9.44731 23.1326 9.49999 23 9.49999H2.58998H1.38288L2.23643 10.3535L7.59643 15.7135L7.59788 15.715C7.64475 15.7615 7.68195 15.8168 7.70733 15.8777C7.73271 15.9386 7.74578 16.004 7.74578 16.07C7.74578 16.136 7.73271 16.2014 7.70733 16.2623C7.68194 16.3232 7.64475 16.3785 7.59788 16.425L7.59788 16.425C7.55116 16.4713 7.49575 16.508 7.43483 16.5329C7.37391 16.5578 7.30868 16.5704 7.24288 16.57L7.24209 16.57C7.11121 16.5694 6.98578 16.5176 6.89272 16.4256C6.89251 16.4254 6.8923 16.4252 6.89209 16.425L1.23376 10.7667L1.37491 8.49999Z" fill="#7F3DFF" stroke="#212325"/>
</svg>
