<svg width="40" height="40" viewBox="0 0 40 40" fill="none" xmlns="http://www.w3.org/2000/svg">
<rect x="0.5" y="0.5" width="39" height="39" rx="7.5" stroke="#F1F1FA"/>
<path d="M31 12.5H9C8.86739 12.5 8.74022 12.4473 8.64645 12.3536C8.55268 12.2598 8.5 12.1326 8.5 12C8.5 11.8674 8.55268 11.7402 8.64645 11.6464C8.74022 11.5527 8.86739 11.5 9 11.5H31C31.1326 11.5 31.2598 11.5527 31.3536 11.6464C31.4473 11.7402 31.5 11.8674 31.5 12C31.5 12.1326 31.4473 12.2598 31.3536 12.3536C31.2598 12.4473 31.1326 12.5 31 12.5Z" fill="black" stroke="#212325"/>
<path d="M27 21H13C12.7348 21 12.4804 20.8946 12.2929 20.7071C12.1054 20.5196 12 20.2652 12 20C12 19.7348 12.1054 19.4804 12.2929 19.2929C12.4804 19.1054 12.7348 19 13 19H27C27.2652 19 27.5196 19.1054 27.7071 19.2929C27.8946 19.4804 28 19.7348 28 20C28 20.2652 27.8946 20.5196 27.7071 20.7071C27.5196 20.8946 27.2652 21 27 21Z" fill="black"/>
<path d="M23 29H17C16.7348 29 16.4804 28.8946 16.2929 28.7071C16.1054 28.5196 16 28.2652 16 28C16 27.7348 16.1054 27.4804 16.2929 27.2929C16.4804 27.1054 16.7348 27 17 27H23C23.2652 27 23.5196 27.1054 23.7071 27.2929C23.8946 27.4804 24 27.7348 24 28C24 28.2652 23.8946 28.5196 23.7071 28.7071C23.5196 28.8946 23.2652 29 23 29Z" fill="black"/>
</svg>
