<svg width="24" height="24" viewBox="0 0 24 24" fill="none" xmlns="http://www.w3.org/2000/svg">
<path d="M23.67 9.55998L21.67 7.73998L14 0.779984C13.45 0.28803 12.738 0.0160522 12 0.0160522C11.2621 0.0160522 10.55 0.28803 10 0.779984L2.35002 7.77998L0.350019 9.59999C0.215344 9.73664 0.122823 9.90914 0.0834928 10.0969C0.0441625 10.2847 0.0596837 10.4799 0.128204 10.6591C0.196725 10.8383 0.315353 10.994 0.469935 11.1076C0.624518 11.2213 0.80853 11.288 1.00002 11.3C1.25331 11.2885 1.49279 11.1813 1.67002 11L2.00002 10.7V21C2.00002 21.7956 2.31609 22.5587 2.8787 23.1213C3.44131 23.6839 4.20437 24 5.00002 24H19C19.7957 24 20.5587 23.6839 21.1213 23.1213C21.6839 22.5587 22 21.7956 22 21V10.74L22.33 11.04C22.5134 11.2067 22.7522 11.2993 23 11.3C23.2016 11.2995 23.3984 11.238 23.5645 11.1237C23.7305 11.0093 23.8582 10.8475 23.9306 10.6593C24.0031 10.4712 24.017 10.2655 23.9704 10.0693C23.9239 9.87314 23.8192 9.6956 23.67 9.55998Z" fill="#7F3DFF"/>
</svg>
