<svg width="24" height="28" viewBox="0 0 24 28" fill="none" xmlns="http://www.w3.org/2000/svg">
<path d="M19 12H5C3.67392 12 2.40215 12.5268 1.46447 13.4645C0.526784 14.4021 0 15.6739 0 17V23C0 24.3261 0.526784 25.5979 1.46447 26.5355C2.40215 27.4732 3.67392 28 5 28H19C20.3261 28 21.5979 27.4732 22.5355 26.5355C23.4732 25.5979 24 24.3261 24 23V17C24 15.6739 23.4732 14.4021 22.5355 13.4645C21.5979 12.5268 20.3261 12 19 12ZM12 24C11.2089 24 10.4355 23.7654 9.77772 23.3259C9.11992 22.8864 8.60723 22.2616 8.30448 21.5307C8.00173 20.7998 7.92252 19.9956 8.07686 19.2196C8.2312 18.4437 8.61216 17.731 9.17157 17.1716C9.73098 16.6122 10.4437 16.2312 11.2196 16.0769C11.9956 15.9225 12.7998 16.0017 13.5307 16.3045C14.2616 16.6072 14.8864 17.1199 15.3259 17.7777C15.7654 18.4355 16 19.2089 16 20C16 21.0609 15.5786 22.0783 14.8284 22.8284C14.0783 23.5786 13.0609 24 12 24Z" fill="#00A86B"/>
<path d="M12 22C13.1046 22 14 21.1046 14 20C14 18.8954 13.1046 18 12 18C10.8954 18 10 18.8954 10 20C10 21.1046 10.8954 22 12 22Z" fill="#00A86B"/>
<path d="M12 0C11.7348 0 11.4805 0.105357 11.2929 0.292893C11.1054 0.48043 11 0.734784 11 1V6.59L8.46003 4.05C8.26873 3.88617 8.02265 3.80057 7.77097 3.81029C7.5193 3.82001 7.28056 3.92434 7.10246 4.10244C6.92437 4.28053 6.82004 4.51927 6.81032 4.77095C6.80059 5.02262 6.8862 5.2687 7.05003 5.46L11.29 9.71C11.3822 9.79995 11.4908 9.87126 11.61 9.92C11.7334 9.97226 11.866 9.99919 12 9.99919C12.134 9.99919 12.2666 9.97226 12.39 9.92C12.5092 9.87126 12.6179 9.79995 12.71 9.71L17 5.46C17.1639 5.2687 17.2495 5.02262 17.2397 4.77095C17.23 4.51927 17.1257 4.28053 16.9476 4.10244C16.7695 3.92434 16.5308 3.82001 16.2791 3.81029C16.0274 3.80057 15.7813 3.88617 15.59 4.05L13 6.59V1C13 0.734784 12.8947 0.48043 12.7071 0.292893C12.5196 0.105357 12.2652 0 12 0Z" fill="#00A86B"/>
</svg>
