<svg width="32" height="32" viewBox="0 0 32 32" fill="none" xmlns="http://www.w3.org/2000/svg">
<path d="M10 28C13.3137 28 16 25.3137 16 22C16 18.6863 13.3137 16 10 16C6.68629 16 4 18.6863 4 22C4 25.3137 6.68629 28 10 28Z" fill="#FCFCFC"/>
<path d="M22 16C25.3137 16 28 13.3137 28 10C28 6.68629 25.3137 4 22 4C18.6863 4 16 6.68629 16 10C16 13.3137 18.6863 16 22 16Z" fill="#FCFCFC"/>
<path d="M6.16004 14C6.25586 14.0359 6.35775 14.0529 6.46005 14.05C6.68062 14.0601 6.89834 13.9969 7.07924 13.8703C7.26013 13.7437 7.39403 13.5607 7.46005 13.35C7.81998 12.1997 8.40731 11.1334 9.18719 10.2143C9.96707 9.29532 10.9236 8.54231 12 8V9C12 9.26522 12.1054 9.51957 12.2929 9.70711C12.4805 9.89464 12.7348 10 13 10C13.2653 10 13.5196 9.89464 13.7072 9.70711C13.8947 9.51957 14 9.26522 14 9V5C14 4.73478 13.8947 4.48043 13.7072 4.29289C13.5196 4.10536 13.2653 4 13 4H9.00005C8.73483 4 8.48047 4.10536 8.29294 4.29289C8.1054 4.48043 8.00005 4.73478 8.00005 5C8.00005 5.26522 8.1054 5.51957 8.29294 5.70711C8.48047 5.89464 8.73483 6 9.00005 6H11.42C10.0192 6.64011 8.76843 7.56725 7.74863 8.72141C6.72884 9.87557 5.96278 11.231 5.50005 12.7C5.45358 12.8285 5.43393 12.9651 5.44231 13.1014C5.45069 13.2378 5.48692 13.371 5.54876 13.4928C5.61061 13.6146 5.69675 13.7225 5.80189 13.8097C5.90702 13.8969 6.02891 13.9617 6.16004 14Z" fill="#FCFCFC"/>
<path d="M19 22C18.7348 22 18.4804 22.1054 18.2929 22.2929C18.1054 22.4805 18 22.7348 18 23V27C18 27.2652 18.1054 27.5196 18.2929 27.7071C18.4804 27.8947 18.7348 28 19 28H23C23.2652 28 23.5196 27.8947 23.7071 27.7071C23.8946 27.5196 24 27.2652 24 27C24 26.7348 23.8946 26.4805 23.7071 26.2929C23.5196 26.1054 23.2652 26 23 26H20.57C22.1462 25.2808 23.5303 24.1994 24.6095 22.844C25.6886 21.4885 26.4323 19.8974 26.78 18.2C26.8063 18.0687 26.8064 17.9335 26.7804 17.8021C26.7544 17.6707 26.7028 17.5458 26.6285 17.4343C26.5542 17.3229 26.4587 17.2272 26.3475 17.1527C26.2362 17.0782 26.1113 17.0263 25.98 17C25.8487 16.9738 25.7135 16.9736 25.5821 16.9996C25.4507 17.0256 25.3257 17.0772 25.2143 17.1515C25.1029 17.2258 25.0072 17.3213 24.9327 17.4326C24.8581 17.5438 24.8063 17.6687 24.78 17.8C24.5085 19.1358 23.9372 20.3924 23.1092 21.4751C22.2812 22.5578 21.218 23.4382 20 24.05V23C20 22.7348 19.8946 22.4805 19.7071 22.2929C19.5196 22.1054 19.2652 22 19 22Z" fill="#FCFCFC"/>
</svg>
