<svg width="25" height="24" viewBox="0 0 25 24" fill="none" xmlns="http://www.w3.org/2000/svg">
<path d="M23.5 16C23.2348 16 22.9804 16.1054 22.7929 16.2929C22.6054 16.4804 22.5 16.7348 22.5 17V21C22.5 21.2652 22.3946 21.5196 22.2071 21.7071C22.0196 21.8946 21.7652 22 21.5 22H3.5C3.23478 22 2.98043 21.8946 2.79289 21.7071C2.60536 21.5196 2.5 21.2652 2.5 21V17C2.5 16.7348 2.39464 16.4804 2.20711 16.2929C2.01957 16.1054 1.76522 16 1.5 16C1.23478 16 0.98043 16.1054 0.792893 16.2929C0.605357 16.4804 0.5 16.7348 0.5 17V21C0.5 21.7956 0.816071 22.5587 1.37868 23.1213C1.94129 23.6839 2.70435 24 3.5 24H21.5C22.2956 24 23.0587 23.6839 23.6213 23.1213C24.1839 22.5587 24.5 21.7956 24.5 21V17C24.5 16.7348 24.3946 16.4804 24.2071 16.2929C24.0196 16.1054 23.7652 16 23.5 16Z" fill="white"/>
<path d="M10.38 17.12C10.9425 17.6818 11.705 17.9974 12.5 17.9974C13.295 17.9974 14.0575 17.6818 14.62 17.12L20.28 11.46C20.4662 11.2726 20.5708 11.0192 20.5708 10.755C20.5708 10.4908 20.4662 10.2374 20.28 10.05C20.187 9.95627 20.0764 9.88188 19.9546 9.83111C19.8327 9.78034 19.702 9.7542 19.57 9.7542C19.438 9.7542 19.3073 9.78034 19.1854 9.83111C19.0636 9.88188 18.953 9.95627 18.86 10.05L13.5 15.41V1C13.5 0.734784 13.3946 0.48043 13.2071 0.292893C13.0196 0.105357 12.7652 0 12.5 0C12.2348 0 11.9804 0.105357 11.7929 0.292893C11.6053 0.48043 11.5 0.734784 11.5 1V15.41L6.13999 10.05C6.04703 9.95627 5.93643 9.88188 5.81457 9.83111C5.69271 9.78034 5.562 9.7542 5.42999 9.7542C5.29798 9.7542 5.16727 9.78034 5.04542 9.83111C4.92356 9.88188 4.81296 9.95627 4.71999 10.05C4.53374 10.2374 4.4292 10.4908 4.4292 10.755C4.4292 11.0192 4.53374 11.2726 4.71999 11.46L10.38 17.12Z" fill="white"/>
</svg>
